<?xml version="1.0" encoding="UTF-8"?>
<svg width="72px" height="88px" viewBox="0 0 72 88" version="1.1" xmlns="http://www.w3.org/2000/svg" xmlns:xlink="http://www.w3.org/1999/xlink">
    <!-- Generator: Sketch 61.2 (89653) - https://sketch.com -->
    <title>Rectangle</title>
    <desc>Created with Sketch.</desc>
    <g id="Page-1" stroke="none" stroke-width="1" fill="none" fill-rule="evenodd">
        <path d="M46.1255177,64.7937228 C45.1705152,64.4008849 44.7268794,64.2315582 44.1951936,64.058845 C42.9184705,63.6389149 41.6451339,63.3781518 40.2160168,63.2393039 C38.8072189,63.100456 35.8270693,63.1478675 33.8324012,63.3442865 C31.9731943,63.5237727 30.0631894,63.964022 28.2310748,64.6345557 C27.9093542,64.7496979 27.6316584,64.8479073 27.6147257,64.8479073 C27.597793,64.8479073 27.5334489,64.8140419 27.4691048,64.7734036 L27.3573492,64.6988998 L27.3336434,63.8522665 C27.3065512,62.8600122 27.2557531,61.3665508 27.2286609,60.8348651 C27.0051497,56.3206161 26.6292444,52.5039928 25.9891896,48.321624 C25.8740476,47.5562674 25.515075,45.4464571 25.420252,44.9520232 C25.3694541,44.6946466 25.3626809,44.6032102 25.3931598,44.576118 C25.4405713,44.532093 27.8483966,43.0724971 27.8721023,43.0724971 C27.8856483,43.0724971 28.1227057,43.2384373 28.4071746,43.4382427 C30.4120024,44.8673598 31.6684063,45.5243473 32.8875583,45.7851104 C33.3650595,45.8867064 34.2116929,45.9104122 34.7230595,45.8359085 C36.142017,45.6259434 37.2426403,44.8842925 38.0418623,43.5940233 C38.8580168,42.2766617 39.3219719,40.4851855 39.4675929,38.0942929 C39.5048448,37.4813304 39.487912,35.4257044 39.4371141,34.7924227 C39.2339221,32.1272209 38.7056228,30.2341487 37.7777127,28.8422835 C36.802391,27.3725279 35.430845,26.6478098 33.6292092,26.6410367 C32.802895,26.6410367 32.1797728,26.7697249 31.5735833,27.074513 C31.082536,27.3183434 30.7540422,27.5994257 30.632127,27.8771214 C30.5711695,28.0159693 30.5677828,28.0498346 30.6050348,28.0938595 C30.6287404,28.1243384 31.0385111,28.4731513 31.5126257,28.8659892 C32.5624511,29.7397149 32.7216181,29.9158145 33.0196331,30.5524829 C33.3345808,31.2230165 33.463269,31.9070962 33.4327902,32.7774354 C33.3887653,34.0304528 32.9925409,34.9346571 32.105269,35.7846771 C31.4347355,36.431505 30.7201769,36.8040237 29.7516283,37.0173752 C29.4366807,37.0851059 29.3046059,37.091879 28.6171397,37.091879 C27.8517831,37.091879 27.8314639,37.0884924 27.4318529,36.98351 C26.9509651,36.8548217 26.3312295,36.5635798 25.9756435,36.2926571 C25.1425562,35.6627619 24.505888,34.7009863 24.2146461,33.6376148 C24.0588656,33.0788368 24.0216136,32.787595 24.004681,32.0459441 C23.9775888,31.0265975 24.0656386,30.3763832 24.3331748,29.5602285 C25.2238331,26.8340691 27.9838579,24.8326278 31.7158178,24.1959596 C33.3447403,23.9182638 35.3766605,23.8708523 37.1308848,24.0740443 C40.4361415,24.453336 43.0336126,25.5979844 45.0384404,27.5587873 C46.0205351,28.5239493 46.6707496,29.397675 47.2600064,30.5592559 C47.9576323,31.9240289 48.3843355,33.4208767 48.6010736,35.2496048 C48.6721908,35.8693404 48.7026696,37.803051 48.6518717,38.5006769 C48.4588392,41.0304174 47.7273481,43.1808662 46.4472383,44.9689558 C44.191807,48.1218185 40.7104507,49.743968 36.4400319,49.6322125 C35.0244609,49.5949605 33.8628799,49.3849955 32.498107,48.9142673 C31.3128202,48.5044967 30.2494487,47.9694245 29.1962369,47.2480929 L28.8304912,46.9974894 L28.8474239,47.1431103 C28.86097,47.2243871 29.0607755,49.3680628 29.2978328,51.9113495 C29.5315037,54.454636 29.7279227,56.5373542 29.7313092,56.5407407 C29.7346957,56.5441273 29.8599973,56.5001023 30.0090049,56.4425312 C31.0960822,56.0192145 32.1018826,55.9210051 35.0515532,55.9514839 C37.5440419,55.9785762 38.7699669,56.0767856 40.199084,56.3680275 C42.6238421,56.8590748 44.4491836,57.9292195 45.9528044,59.7342417 C46.0848793,59.8934088 46.3083904,60.1473988 46.4540114,60.2997928 C47.2295275,61.1328801 47.6968692,62.2944611 47.7883056,63.6185956 L47.8120114,63.9606355 L47.683323,64.1943064 C47.5139963,64.4957078 47.2532333,64.7700171 47.0398817,64.8682265 C46.7723455,64.9935282 46.5725401,64.9765956 46.1255177,64.7937228 Z" id="Path" fill="#6E6E6E" fill-rule="nonzero" transform="translate(36.338548, 44.449093) scale(1, -1) translate(-36.338548, -44.449093) "></path>
        <rect id="Rectangle" x="0" y="0" width="72" height="88"></rect>
    </g>
</svg>