<?xml version="1.0" encoding="UTF-8"?>
<svg width="72px" height="88px" viewBox="0 0 72 88" version="1.1" xmlns="http://www.w3.org/2000/svg" xmlns:xlink="http://www.w3.org/1999/xlink">
    <!-- Generator: Sketch 61.2 (89653) - https://sketch.com -->
    <title>Rectangle</title>
    <desc>Created with Sketch.</desc>
    <g id="Page-1" stroke="none" stroke-width="1" fill="none" fill-rule="evenodd">
        <path d="M37.6319059,64.094947 C37.0038369,64.0548575 36.1753204,63.9446113 35.5138437,63.8109796 C31.9659224,63.0993908 29.0527516,61.1149603 26.8378064,57.9011182 C24.1384463,53.9790283 22.8388782,48.4633804 23.0159401,41.6648683 C23.162935,36.0222703 24.3322122,31.6625366 26.5772246,28.3952418 C28.869008,25.0544496 31.972604,23.3038745 35.8746492,23.1435165 C40.909223,22.9397282 44.8146091,24.8172534 47.1732084,28.5789853 C48.1988315,30.209292 48.8202189,32.2137672 49.0440519,34.6157968 C49.1008454,35.2271618 49.1008454,37.2115923 49.0440519,37.7895494 C48.7099727,41.1670903 47.5941481,43.7060923 45.5495834,45.7406347 C43.899232,47.3843045 41.9782765,48.2829776 39.5829286,48.533537 C39.0250162,48.5903305 37.7922639,48.5836489 37.2310108,48.5134923 C35.5672963,48.3163855 34.2844321,47.8186075 32.8846402,46.829733 L32.550561,46.5925368 L32.5405386,47.6883166 C32.5004491,51.7507199 33.0516798,55.3253675 34.0706214,57.6338549 C34.9692946,59.6683974 36.1920245,60.8176299 37.8457166,61.1784353 C38.256634,61.2686368 39.5394982,61.2686368 39.9504156,61.1784353 C40.8791559,60.974647 41.4370682,60.5770928 41.5339511,60.0492476 C41.5874038,59.7485763 41.3034365,59.447905 40.3179028,58.7697242 C39.943734,58.5124832 39.542839,58.2118119 39.4325929,58.1015658 C38.6608699,57.3465468 38.3234498,56.0536602 38.5639869,54.7908408 C38.7844792,53.6315858 39.5495206,52.6460521 40.6586635,52.0847991 C41.5940854,51.6137474 42.7834075,51.4667525 44.0261821,51.6738816 C45.1019172,51.8542844 45.9437968,52.278565 46.6854526,53.0202209 C47.4271085,53.7652175 47.8413668,54.5803709 48.0384735,55.6961954 C48.095267,56.0135707 48.1086301,56.234063 48.111971,56.7652489 C48.111971,57.48686 48.0651998,57.9011182 47.9148642,58.5024609 C47.3135216,60.8877865 45.3057055,62.7786748 42.452669,63.6405992 C41.1330561,64.0414942 39.382481,64.2051931 37.6319059,64.094947 Z M36.9771106,45.1225882 C38.1296839,44.8386209 38.8112056,43.9900597 39.1653295,42.3998425 C39.5227943,40.7929216 39.6965155,37.699348 39.6163365,34.3151256 C39.5495206,31.38191 39.3624362,29.6580612 38.9916083,28.4687392 C38.6441659,27.3562554 37.9526219,26.6413259 36.9938146,26.3974481 C36.1485942,26.1836373 35.186446,26.2938836 34.5249692,26.688097 C34.2543649,26.848455 33.8701739,27.2159422 33.6797487,27.4999095 C32.9748416,28.5522591 32.63074,30.3496052 32.4971083,33.713783 C32.453678,34.806222 32.4738044,37.8563653 32.533857,38.7416752 C32.7075783,41.444376 33.0115903,42.9310285 33.5728434,43.8530871 C33.8200621,44.2539822 34.271069,44.6983076 34.6218521,44.8787104 C34.9158418,45.029046 35.2499211,45.1392922 35.5572739,45.189404 C35.8813308,45.239516 36.649713,45.2027672 36.9771106,45.1225882 Z" id="Shape" fill="#6E6E6E" fill-rule="nonzero" transform="translate(36.043323, 43.628528) scale(1, -1) translate(-36.043323, -43.628528) "></path>
        <rect id="Rectangle" x="0" y="0" width="72" height="88"></rect>
    </g>
</svg>