<?xml version="1.0" encoding="UTF-8"?>
<svg width="96px" height="72px" viewBox="0 0 96 72" version="1.1" xmlns="http://www.w3.org/2000/svg" xmlns:xlink="http://www.w3.org/1999/xlink">
    <!-- Generator: Sketch 61.2 (89653) - https://sketch.com -->
    <title>Rectangle</title>
    <desc>Created with Sketch.</desc>
    <g id="Page-1" stroke="none" stroke-width="1" fill="none" fill-rule="evenodd">
        <path d="M36.2373322,57.3304488 C36.2373322,57.3051971 35.9595638,54.022479 35.6204698,50.0399287 L35,42.7963045 L35.1046141,42.6880831 L35.2056208,42.583469 L36.4718121,42.583469 L37.734396,42.583469 L37.7812919,42.828771 C38.1456376,44.7659354 38.7625,46.6129153 39.3577182,47.525583 C39.9565437,48.449073 40.865604,48.8963885 42.6512584,49.1416904 C43.0192115,49.1885864 43.8525168,49.1994086 49.2347315,49.2102307 L55.396141,49.2246602 L55.2626678,49.0154321 C51.5795302,43.2724791 48.3978188,37.7748281 46.2838926,33.5109018 C44.4116611,29.730365 43.2212248,26.7145931 42.5935403,24.1497442 C42.2219799,22.649073 42.081292,21.5957173 42.081292,20.376422 C42.081292,19.0272609 42.2760906,18.0604824 42.7342282,17.1405998 C43.6360738,15.3224791 45.3676174,14.3737374 47.777349,14.3737374 C51.1899328,14.3737374 53.1559564,16.1377475 53.6393457,19.6296938 C53.7980705,20.7732341 53.7908557,21.7472273 53.6068792,24.7088884 C53.5599832,25.4844757 53.4986578,26.4476468 53.473406,26.855281 C53.4120805,27.8437038 53.4120805,31.5665227 53.473406,32.3926133 C53.596057,34.0628313 53.7403524,35.3037709 53.9676174,36.6493247 C55.0426174,43.0416065 57.6363255,48.8098112 61.7559564,53.9467239 L61.8858221,54.1090562 L61.8858221,55.6458011 L61.8858221,57.1789387 L61.7848154,57.2763381 L61.6838088,57.3737374 L48.9605705,57.3737374 C38.8057886,57.3737374 36.2373322,57.3629152 36.2373322,57.3304488 Z" id="Path" fill="#6E6E6E" fill-rule="nonzero" transform="translate(48.442911, 35.873737) scale(1, -1) translate(-48.442911, -35.873737) "></path>
        <rect id="Rectangle" x="7.10542736e-15" y="0" width="96" height="72"></rect>
    </g>
</svg>