<?xml version="1.0" encoding="UTF-8"?>
<svg width="72px" height="88px" viewBox="0 0 72 88" version="1.1" xmlns="http://www.w3.org/2000/svg" xmlns:xlink="http://www.w3.org/1999/xlink">
    <!-- Generator: Sketch 61.2 (89653) - https://sketch.com -->
    <title>Rectangle</title>
    <desc>Created with Sketch.</desc>
    <g id="Page-1" stroke="none" stroke-width="1" fill="none" fill-rule="evenodd">
        <path d="M37.5216469,64.7094058 C35.4194397,62.8473515 32.3496604,61.6953141 28.2635824,61.2358913 C27.111545,61.1071138 25.2912564,60.992258 24.4211376,60.992258 L24.0696095,60.992258 L24.0626485,59.5478608 L24.0522071,58.099983 L24.1566214,57.9990492 L24.2610357,57.8981155 L26.819185,57.8841936 C28.9770798,57.8737521 29.439983,57.8598302 29.7775892,57.8111036 C30.29618,57.7345331 30.6616299,57.6370798 30.8774194,57.5117826 C31.1628183,57.3516808 31.3055178,57.0175552 31.4377759,56.2170459 C31.4934635,55.8864007 31.5004245,54.9257894 31.5108659,43.4680646 C31.5178269,34.4431918 31.5108659,30.9696774 31.4830221,30.6773175 C31.3298812,29.1250254 30.8669779,28.192258 30.0351443,27.7606791 C29.0640917,27.2594906 27.7275892,27.0576231 25.3365025,27.0576231 L24.1879457,27.0576231 L24.0939729,26.9601698 L24,26.8627165 L24,25.5088115 L24,24.1549067 L24.0939729,24.0574533 L24.1879457,23.96 L35.9728353,23.96 L47.757725,23.96 L47.8516977,24.0574533 L47.9456706,24.1549067 L47.9456706,25.512292 L47.9456706,26.8696774 L47.8516977,26.9601698 L47.7542445,27.0506622 L46.3968591,27.0680646 C44.9524618,27.0854669 44.4582343,27.1272326 43.6855687,27.283854 C42.947708,27.4335144 42.4082343,27.6423429 42.0149406,27.9347029 C41.4719864,28.3349576 41.110017,29.1424278 40.9290322,30.3466723 C40.8698642,30.7434465 40.8663837,31.5648388 40.8559423,47.7664516 L40.8455008,64.7650933 L40.7515281,64.8625467 L40.6575552,64.96 L39.2305603,64.9565195 L37.8000849,64.9565195 L37.5216469,64.7094058 Z" id="Path" fill="#6E6E6E" fill-rule="nonzero" transform="translate(35.972835, 44.460000) scale(1, -1) translate(-35.972835, -44.460000) "></path>
        <rect id="Rectangle" x="0" y="0" width="72" height="88"></rect>
    </g>
</svg>