<?xml version="1.0" encoding="UTF-8"?>
<svg width="72px" height="88px" viewBox="0 0 72 88" version="1.1" xmlns="http://www.w3.org/2000/svg" xmlns:xlink="http://www.w3.org/1999/xlink">
    <!-- Generator: Sketch 61.2 (89653) - https://sketch.com -->
    <title>Rectangle</title>
    <desc>Created with Sketch.</desc>
    <g id="Page-1" stroke="none" stroke-width="1" fill="none" fill-rule="evenodd">
        <path d="M34.0545059,64.3502018 C31.9234742,64.178616 30.3684926,63.8039289 28.8559196,63.0965755 C26.8026369,62.1370962 25.1769743,60.6523546 24.3005301,58.9364974 C23.7845589,57.9244919 23.5265733,56.877469 23.4806307,55.6378497 C23.4134838,53.7504069 23.9188528,52.3006828 25.0250102,51.208137 C25.7106158,50.5287976 26.4810384,50.1190929 27.4741063,49.9054863 C27.9618051,49.8004338 29.1845861,49.7899286 29.6616827,49.8879775 C30.5911377,50.0735702 31.3792306,50.4832749 32.0153595,51.1065862 C32.8175887,51.8944798 33.2169362,52.7243944 33.3335598,53.8449541 C33.485524,55.3366993 32.8918037,56.7479043 31.8139188,57.4552575 C31.6866929,57.5392996 31.114177,57.8159377 30.541661,58.0715654 C29.969145,58.3236913 29.4602419,58.5583085 29.4107653,58.5898243 C29.2658692,58.677368 29.1245073,58.817438 29.0679625,58.9189888 C28.9089302,59.2236409 29.177518,59.7454015 29.7182275,60.1691131 C30.6335463,60.8939753 31.8881337,61.2931747 33.2310724,61.2931747 C36.2350143,61.2896729 38.0621177,59.6578578 38.5922251,56.5062835 C38.7194508,55.7569092 38.7512573,55.3051836 38.7512573,54.3246938 C38.7477233,52.5633139 38.510942,51.1310985 37.94196,49.4397537 C37.3623759,47.716893 36.6661682,46.4177441 35.4115808,44.729901 C34.4079108,43.3817275 33.3971727,42.1701223 31.6831589,40.261669 C28.8064428,37.0610702 27.880522,35.9685245 26.9298627,34.6413615 C24.4030175,31.1221036 23.2438494,27.9670275 23.0247383,24.024058 L23,23.575834 L23.0989534,23.4707815 L23.2014408,23.3692308 L35.2772869,23.3692308 L47.349599,23.3692308 L47.3708033,23.4847885 C47.3778714,23.5443183 47.7489465,26.1846371 48.1942367,29.3467167 L49,35.1000907 L48.8975126,35.2051432 L48.7950251,35.3101956 L47.4238141,35.3101956 L46.0526029,35.3101956 L46.0384668,35.2331571 C46.0278646,35.1876344 45.985456,34.9390102 45.9430475,34.6798807 C45.7946173,33.7554189 45.5366318,32.9149992 45.2503737,32.4037438 C44.833356,31.6648747 44.0700014,31.353219 42.4302025,31.2481665 C42.1262743,31.2271561 39.2248199,31.2131491 35.5953513,31.2131491 L29.2941416,31.2131491 L29.3188799,31.311198 C29.3966291,31.6298572 29.9161343,32.652368 30.3331521,33.3141985 C31.2166644,34.7113965 32.6868288,36.2696749 34.3937746,37.6248518 C35.4469213,38.4617699 36.2350143,39.004541 37.8005981,39.967522 C40.7197227,41.7604176 41.9566399,42.5938339 43.3879299,43.7284007 C45.3917357,45.3111913 46.5120293,46.5963332 47.3566672,48.2666677 C48.2225092,49.9860265 48.6077205,51.7929291 48.5511757,53.9044838 C48.5299715,54.7414019 48.4769607,55.2316468 48.3285306,55.9319966 C47.7136061,58.887473 45.7804811,61.2966765 42.8189479,62.8024286 C41.1084681,63.6743642 39.1753432,64.1751143 36.8817453,64.3396965 C36.4364551,64.3712122 34.4079108,64.3817174 34.0545059,64.3502018 Z" id="Path" fill="#6E6E6E" fill-rule="nonzero" transform="translate(36.000000, 43.869231) scale(1, -1) translate(-36.000000, -43.869231) "></path>
        <rect id="Rectangle" x="0" y="0" width="72" height="88"></rect>
    </g>
</svg>