<?xml version="1.0" encoding="UTF-8"?>
<svg width="96px" height="72px" viewBox="0 0 96 72" version="1.1" xmlns="http://www.w3.org/2000/svg" xmlns:xlink="http://www.w3.org/1999/xlink">
    <!-- Generator: Sketch 61.2 (89653) - https://sketch.com -->
    <title>Rectangle</title>
    <desc>Created with Sketch.</desc>
    <g id="Page-1" stroke="none" stroke-width="1" fill="none" fill-rule="evenodd">
        <path d="M45.5937501,57.9800427 C43.3587656,57.8000869 41.7279313,57.4071224 40.1415742,56.665264 C37.9881314,55.6589808 36.2831682,54.1018128 35.3639705,52.3022552 C34.8228301,51.2408836 34.5522598,50.1427864 34.5040761,48.8426979 C34.4336537,46.8631847 34.9636749,45.3427423 36.1237912,44.1969016 C36.8428409,43.4844237 37.6508452,43.0547335 38.6923554,42.830707 C39.2038443,42.72053 40.4862732,42.7095123 40.9866429,42.8123441 C41.9614371,43.0069901 42.7879736,43.4366804 43.4551332,44.0903972 C44.2964955,44.9167245 44.7153234,45.7871228 44.8376359,46.9623439 C44.9970129,48.5268572 44.3743307,50.0069014 43.243866,50.7487597 C43.110434,50.8369014 42.5099905,51.1270341 41.9095469,51.3951314 C41.3091033,51.6595562 40.7753757,51.9056181 40.7234855,51.9386712 C40.5715213,52.0304854 40.4232637,52.1773881 40.3639606,52.2838925 C40.1971707,52.6034057 40.4788604,53.150618 41.045946,53.5949985 C42.0059144,54.3552198 43.3217012,54.7738924 44.7301491,54.7738924 C47.8806248,54.7702198 49.7968551,53.0588039 50.3528214,49.7534943 C50.4862533,48.9675651 50.5196114,48.4938041 50.5196114,47.4654856 C50.5159049,45.6181848 50.2675733,44.1161051 49.6708361,42.3422557 C49.0629796,40.5353531 48.3328106,39.172831 47.0170238,37.4026541 C45.9643943,35.988716 44.9043519,34.7180081 43.1067276,32.7164595 C40.0896839,29.359734 39.1185962,28.2138934 38.1215633,26.8219907 C35.4714574,23.1310617 34.2557445,19.8220795 34.025945,15.68677 L34,15.2166814 L34.1037804,15.1065044 L34.2112672,15 L46.876179,15 L59.5373843,15 L59.559623,15.1211947 C59.5670358,15.1836283 59.9562122,17.9527432 60.4232239,21.2690706 L61.2682927,27.3030969 L61.1608059,27.4132739 L61.0533191,27.5234508 L59.6152197,27.5234508 L58.1771201,27.5234508 L58.1622944,27.4426545 C58.1511751,27.3949111 58.1066978,27.1341589 58.0622205,26.8623889 C57.9065499,25.8928314 57.6359797,25.0114156 57.3357578,24.475221 C56.8983977,23.7003094 56.0978063,23.373451 54.3780172,23.263274 C54.0592633,23.2412387 51.0162745,23.2265484 47.2097587,23.2265484 L40.6011729,23.2265484 L40.627118,23.3293802 C40.7086598,23.6635837 41.2535067,24.7359732 41.6908669,25.4300881 C42.6174773,26.895442 44.1593571,28.529734 45.9495685,29.9510172 C47.0540882,30.8287605 47.8806248,31.3980083 49.5225785,32.407964 C52.5840994,34.2883179 53.8813541,35.1623886 55.382463,36.3523001 C57.4840155,38.0123001 58.6589576,39.3601318 59.5447973,41.111946 C60.4528755,42.9151759 60.8568776,44.8102201 60.7975745,47.0247776 C60.775336,47.9025209 60.7197393,48.4166802 60.5640687,49.1511934 C59.9191479,52.2508394 57.8917241,54.777565 54.7857258,56.3567684 C52.991808,57.2712374 50.9643844,57.7964144 48.5589036,57.969025 C48.0918919,58.0020781 45.9643943,58.0130957 45.5937501,57.9800427 Z" id="Path" fill="#6E6E6E" fill-rule="nonzero" transform="translate(47.634146, 36.500000) scale(1, -1) translate(-47.634146, -36.500000) "></path>
        <rect id="Rectangle" x="0" y="0" width="96" height="72"></rect>
    </g>
</svg>