<?xml version="1.0" encoding="UTF-8"?>
<svg width="96px" height="72px" viewBox="0 0 96 72" version="1.1" xmlns="http://www.w3.org/2000/svg" xmlns:xlink="http://www.w3.org/1999/xlink">
    <!-- Generator: Sketch 61.2 (89653) - https://sketch.com -->
    <title>Rectangle</title>
    <desc>Created with Sketch.</desc>
    <g id="Page-1" stroke="none" stroke-width="1" fill="none" fill-rule="evenodd">
        <path d="M46.1884728,57.5058354 C42.6947086,57.307326 39.8830947,56.1270979 37.7067105,53.9398859 C35.2307578,51.4531055 34,48.0784468 34,43.7942545 C34,39.6183401 35.2415857,36.2869926 37.7211476,33.8146491 C38.8688925,32.6705135 40.067167,31.916178 41.5325268,31.4108815 C43.766659,30.6384998 46.4375119,30.6421091 48.6247238,31.4181001 C49.404324,31.6960132 50.6892208,32.3962097 51.2883581,32.8654136 L51.4219007,32.9736913 L51.4219007,31.8584298 C51.4219007,26.4012279 50.6025985,22.3841209 49.0073054,19.9875719 C47.8090309,18.1901601 46.2137377,17.3852951 44.1745055,17.5513211 C42.795768,17.6632081 41.9331547,18.1648953 41.9295454,18.8578733 C41.9295454,19.1899253 42.268816,19.5400236 43.2433163,20.2005182 C43.5428849,20.4026369 43.9074202,20.6805499 44.0517907,20.8177018 C44.6509279,21.3843557 44.9901984,22.149519 45.0623836,23.0807082 C45.2248003,25.141596 44.1420221,26.7838095 42.2074584,27.4262579 C41.3015341,27.7222173 40.1032596,27.772747 39.0529648,27.5525821 C37.1761493,27.1627819 35.7577098,25.8670573 35.2379763,24.0804734 C35.0899966,23.5715677 35.0322485,23.1709397 35.0105929,22.5140543 C34.9528448,20.8285296 35.3751283,19.420918 36.327973,18.132412 C36.5878398,17.7787044 37.2411159,17.1109912 37.6525716,16.7789392 C38.6884294,15.9379816 39.984154,15.2991425 41.37011,14.9418256 C43.0411977,14.5159329 45.0659928,14.4184828 47.0546954,14.6711311 C51.7178601,15.2594405 55.3162928,17.6848637 57.8896956,21.9726653 C59.6582333,24.9106033 60.74823,28.6064861 61.1452486,33.0025655 C61.2715727,34.381303 61.2932283,34.9587847 61.2896191,36.9907983 C61.2896191,39.2032752 61.2571357,39.9215179 61.0730634,41.556513 C60.3981317,47.6669911 58.2758865,52.2615798 54.8687445,55.0010085 C52.5588177,56.8597777 49.6461444,57.7007355 46.1884728,57.5058354 Z M48.379294,54.1708787 C49.7147204,53.9110119 50.5520689,52.8859819 50.9707431,51.0019478 C51.2594839,49.6881771 51.3930265,48.2950025 51.4652118,45.8010033 C51.508523,44.2562398 51.4724304,41.9679687 51.3858081,40.7444293 C51.1475968,37.4311281 50.6459096,35.8033517 49.5992241,34.9623939 C49.0181332,34.4967993 48.364857,34.3091178 47.4589326,34.3488196 C45.7445339,34.4210048 44.7952983,35.4279885 44.3477499,37.6512931 C44.0229165,39.2682418 43.9002016,41.1017462 43.9002016,44.299551 C43.9002016,47.5154022 44.0265258,49.4030454 44.3513593,50.9911201 C44.7267224,52.8426707 45.4594022,53.8063433 46.729862,54.134786 C47.1954566,54.2575008 47.8631698,54.2683287 48.379294,54.1708787 Z" id="Shape" fill="#6E6E6E" fill-rule="nonzero" transform="translate(47.644990, 36.033354) scale(1, -1) translate(-47.644990, -36.033354) "></path>
        <rect id="Rectangle" x="0" y="0" width="96" height="72"></rect>
    </g>
</svg>