<?xml version="1.0" encoding="UTF-8"?>
<svg width="72px" height="88px" viewBox="0 0 72 88" version="1.1" xmlns="http://www.w3.org/2000/svg" xmlns:xlink="http://www.w3.org/1999/xlink">
    <!-- Generator: Sketch 61.2 (89653) - https://sketch.com -->
    <title>Rectangle</title>
    <desc>Created with Sketch.</desc>
    <g id="Page-1" stroke="none" stroke-width="1" fill="none" fill-rule="evenodd">
        <path d="M34.8273654,64.0232498 C31.4961018,63.8339734 28.8152606,62.7086396 26.7401037,60.6231585 C24.3793116,58.2520422 23.2057983,55.0343444 23.2057983,50.9494168 C23.2057983,46.967731 24.3896358,43.79133 26.7538693,41.4339792 C27.8482307,40.3430592 28.9907714,39.623809 30.387975,39.1420147 C32.5181941,38.4055578 35.0648212,38.4089991 37.1503024,39.1488976 C37.8936421,39.4138845 39.1187763,40.0815136 39.6900467,40.5288942 L39.817378,40.6321357 L39.817378,39.5687468 C39.817378,34.3653683 39.036183,30.5351035 37.5150895,28.2500219 C36.3725487,26.5362106 34.8514552,25.7687811 32.907071,25.927085 C31.5924608,26.033768 30.7699691,26.5121209 30.7665276,27.1728674 C30.7665276,27.4894751 31.0900182,27.8232898 32.0191929,28.4530637 C32.3048281,28.6457814 32.6524083,28.9107683 32.7900638,29.041541 C33.3613342,29.581839 33.6848247,30.3114132 33.7536524,31.1992913 C33.9085149,33.1643239 32.8760984,34.7301553 31.0315145,35.3427224 C30.1677262,35.6249163 29.0251853,35.6730957 28.0237415,35.463171 C26.2342197,35.0915011 24.8817542,33.8560428 24.3861943,32.1525558 C24.2450974,31.6673201 24.1900352,31.285326 24.1693869,30.6589934 C24.1143247,29.0518652 24.5169671,27.7097239 25.4254935,26.4811484 C25.6732735,26.1438924 26.2961647,25.5072356 26.6884829,25.1906279 C27.6761613,24.3887845 28.9116196,23.7796589 30.2331125,23.4389614 C31.8264751,23.0328776 33.7570938,22.9399602 35.6532986,23.1808574 C40.0995718,23.7418035 43.5306356,26.0544163 45.9843453,30.1427853 C47.6706254,32.9440751 48.7099246,36.4680563 49.0884772,40.6596669 C49.2089258,41.9742771 49.2295741,42.5248991 49.2261327,44.4624005 C49.2261327,46.5719714 49.1951602,47.2568076 49.0196494,48.8157563 C48.3761099,54.6420262 46.3525738,59.0229131 43.1039035,61.6349265 C40.9014152,63.4072413 38.1242151,64.2090848 34.8273654,64.0232498 Z M36.9162879,60.8434073 C38.1896015,60.5956274 38.9880035,59.6182732 39.3872045,57.8218687 C39.6625155,56.5692035 39.7898469,55.2408277 39.8586746,52.8628286 C39.8999714,51.3899145 39.8655575,49.2080746 39.7829641,48.041444 C39.5558325,44.8822499 39.0774796,43.330184 38.0794771,42.5283405 C37.5254137,42.0844014 36.9025225,41.9054493 36.038734,41.9433045 C34.4040748,42.0121323 33.4989897,42.9722795 33.0722575,45.0921746 C32.7625327,46.6339164 32.6455254,48.3821415 32.6455254,51.4312112 C32.6455254,54.4974879 32.765974,56.2973338 33.075699,57.8115445 C33.4336033,59.5769765 34.1322051,60.4958271 35.3435737,60.8089935 C35.7875127,60.9260006 36.4241695,60.9363248 36.9162879,60.8434073 Z" id="Shape" fill="#6E6E6E" fill-rule="nonzero" transform="translate(36.216138, 43.549488) scale(1, -1) translate(-36.216138, -43.549488) "></path>
        <rect id="Rectangle" x="0" y="0" width="72" height="88"></rect>
    </g>
</svg>