<?xml version="1.0" encoding="UTF-8"?>
<svg width="72px" height="88px" viewBox="0 0 72 88" version="1.1" xmlns="http://www.w3.org/2000/svg" xmlns:xlink="http://www.w3.org/1999/xlink">
    <!-- Generator: Sketch 61.2 (89653) - https://sketch.com -->
    <title>Rectangle</title>
    <desc>Created with Sketch.</desc>
    <g id="Page-1" stroke="none" stroke-width="1" fill="none" fill-rule="evenodd">
        <path d="M34.4630314,64.5126549 C31.2896684,64.2593336 28.7222226,63.1878529 26.801773,61.3153291 C25.9836136,60.5211324 25.4187755,59.7543219 24.9600586,58.8163484 C23.7893033,56.4200657 23.7174148,53.3562469 24.7649327,50.7032196 C25.7611017,48.1836995 27.7397466,45.8456121 30.6358255,43.7539996 L31.1082356,43.4150967 L30.2592667,42.9837658 C25.1004123,40.351278 22.8752925,37.2463802 23.0053765,32.8714525 C23.0841115,30.1739228 24.1213596,28.0069985 26.1102743,26.3775262 C28.0273005,24.8062494 30.4920486,23.9059317 33.6414487,23.6252243 C33.9700818,23.5978382 34.6650038,23.5636056 35.1819163,23.5499126 C39.2898296,23.4609078 42.6275091,24.3612254 45.1230665,26.2405958 C47.4337677,27.9796124 48.7209138,30.2252717 49.0666632,33.1076575 C49.1351285,33.6964585 49.1453983,35.0520699 49.0837795,35.6408708 C48.7243371,39.0675552 47.043516,41.9157083 43.7674551,44.6577405 C43.0964959,45.2157321 42.0832106,45.9688495 41.3677491,46.4412595 C41.0356927,46.6569249 40.7652551,46.8417811 40.7652551,46.8520509 C40.7618318,46.8623206 40.974074,46.9752883 41.2342419,47.1053722 C41.8470056,47.4100424 42.5521973,47.8139872 43.1067657,48.1768529 C45.8659141,49.987758 47.3208001,52.0519845 47.7281682,54.7255514 C47.8034799,55.2253475 47.8342892,56.3276376 47.7829403,56.8171639 C47.6015075,58.5287945 46.913432,59.9734106 45.6879045,61.1955149 C43.753762,63.1296574 40.9021855,64.2730266 37.4070359,64.5160782 C36.8285048,64.5537341 34.9833671,64.5537341 34.4630314,64.5126549 Z M37.0749797,61.5173015 C38.6976053,61.2537103 40.0018679,60.3773555 40.8439901,58.9806649 C41.432791,58.0016123 41.7306148,56.6699637 41.6758426,55.2732732 C41.5868378,53.1200419 40.8097575,51.271481 39.2076712,49.4023804 C38.9372336,49.0840171 38.3929351,48.5294489 38.351856,48.5294489 C38.3005071,48.5294489 37.3180311,49.135366 36.6025696,49.607776 C33.6859511,51.5419186 32.0393625,53.3185911 31.4197522,55.204808 C30.957612,56.6151915 31.0295005,58.1180031 31.6148782,59.2613724 C32.2961071,60.5861744 33.6517185,61.4146036 35.3941584,61.5686504 C35.8391824,61.6097294 36.6641883,61.5823434 37.0749797,61.5173015 Z M34.3603336,41.1215118 C36.6710348,39.7385143 38.5161725,38.3281307 39.6595418,37.0615241 C41.1623534,35.4012425 41.8846614,33.6074537 41.812773,31.7041205 C41.7580008,30.256081 41.2958606,29.1264049 40.3750033,28.1884314 C39.5602672,27.3531557 38.5504051,26.8362432 37.3043381,26.6171545 C36.8011188,26.5247264 35.7262148,26.4939171 35.178493,26.5486893 C33.7715326,26.6958895 32.6384333,27.1511832 31.6662271,27.9659194 C30.3688111,29.0579397 29.5848843,30.6292165 29.3931817,32.5222799 C29.3692189,32.7756013 29.3589491,33.2035088 29.3726421,33.6690724 C29.4000283,34.7028973 29.5061494,35.3327773 29.8245126,36.2947136 C30.3653878,37.937879 31.3204777,39.4406906 32.9362569,41.1797073 C33.3710111,41.6452707 33.4120902,41.6795033 33.4805554,41.6452707 C33.5216346,41.6213079 33.9187329,41.3885261 34.3603336,41.1215118 Z" id="Shape" fill="#6E6E6E" fill-rule="nonzero" transform="translate(36.062271, 44.043906) scale(1, -1) translate(-36.062271, -44.043906) "></path>
        <rect id="Rectangle" x="0" y="0" width="72" height="88"></rect>
    </g>
</svg>