<?xml version="1.0" encoding="UTF-8"?>
<svg width="96px" height="72px" viewBox="0 0 96 72" version="1.1" xmlns="http://www.w3.org/2000/svg" xmlns:xlink="http://www.w3.org/1999/xlink">
    <!-- Generator: Sketch 61.2 (89653) - https://sketch.com -->
    <title>Rectangle</title>
    <desc>Created with Sketch.</desc>
    <g id="Page-1" stroke="none" stroke-width="1" fill="none" fill-rule="evenodd">
        <path d="M46.0222037,57.5111304 C42.6940424,57.245452 40.0013554,56.1217039 37.9872254,54.1578375 C37.1291558,53.3248996 36.5367646,52.5206837 36.0556712,51.5369553 C34.8278059,49.0237808 34.7524106,45.8105074 35.851027,43.0280642 C36.8957895,40.3856406 38.9709537,37.9335002 42.0083048,35.7398578 L42.5037593,35.384423 L41.6133773,34.9320517 C36.2028714,32.1711498 33.8692092,28.9147936 34.0056388,24.3264548 C34.0882145,21.4973382 35.17606,19.2247103 37.261995,17.5157516 C39.2725347,15.8678271 41.8575143,14.9235915 45.1605438,14.629191 C45.5052078,14.6004691 46.2340284,14.5645666 46.7761561,14.5502056 C51.0844554,14.4568591 54.5849486,15.4010947 57.2022405,17.3721416 C59.6256588,19.1959883 60.9755926,21.551192 61.3382078,24.574182 C61.4100128,25.191705 61.4207836,26.6134437 61.356159,27.2309667 C60.9791828,30.8248063 59.2163704,33.8118938 55.7805017,36.6876837 C55.0768127,37.2728943 54.014099,38.0627492 53.2637368,38.5582036 C52.9154826,38.7843893 52.6318529,38.9782628 52.6318529,38.9890335 C52.6282626,38.9998043 52.8508581,39.1182826 53.1237171,39.254712 C53.7663718,39.5742442 54.5059631,39.9978936 55.0875835,40.3784601 C57.9813246,42.277702 59.5071806,44.4426225 59.9344203,47.2466073 C60.0134057,47.7707837 60.045718,48.926844 59.9918642,49.4402496 C59.801581,51.2353744 59.0799408,52.7504596 57.7946316,54.0321788 C55.7661407,56.0606696 52.7754629,57.259813 49.1098182,57.5147207 C48.503066,57.5542135 46.5679215,57.5542135 46.0222037,57.5111304 Z M48.761564,54.3696622 C50.4633422,54.0932129 51.8312273,53.1741091 52.7144287,51.7092873 C53.3319515,50.682476 53.6443033,49.2858689 53.5868593,47.8210472 C53.4935128,45.5627802 52.6785262,43.6240456 50.9982893,41.6637693 C50.7146597,41.3298762 50.14381,40.7482558 50.1007271,40.7482558 C50.0468733,40.7482558 49.0164717,41.3837299 48.2661095,41.8791843 C45.207217,43.9076753 43.4803071,45.7710148 42.8304719,47.7492422 C42.3457882,49.2284249 42.4211834,50.8045445 43.0351161,52.0036878 C43.7495758,53.3931143 45.1713145,54.2619547 46.9987515,54.4235159 C47.4654839,54.4665989 48.3307341,54.4378769 48.761564,54.3696622 Z M45.9144962,32.978956 C48.3379145,31.5284952 50.273059,30.0493124 51.4722023,28.7209201 C53.0483218,26.9796492 53.8058644,25.0983585 53.7304693,23.1021797 C53.6730252,21.5835042 53.1883416,20.3987219 52.2225645,19.4149936 C51.3680851,18.5389727 50.3089615,17.996845 49.0021107,17.7670691 C48.4743441,17.6701323 47.3470057,17.6378201 46.7725658,17.6952641 C45.2969732,17.8496448 44.1086007,18.3271479 43.0889699,19.1816274 C41.7282653,20.326917 40.9060982,21.9748414 40.7050442,23.9602493 C40.6799125,24.2259279 40.6691417,24.6747089 40.6835027,25.1629829 C40.7122248,26.2472383 40.8235225,26.9078442 41.1574157,27.9167042 C41.7246751,29.640024 42.7263547,31.2161435 44.4209524,33.0399902 C44.8769141,33.5282641 44.919997,33.5641666 44.991802,33.5282641 C45.0348851,33.5031324 45.451354,33.2589954 45.9144962,32.978956 Z" id="Shape" fill="#6E6E6E" fill-rule="nonzero" transform="translate(47.699455, 36.043906) scale(1, -1) translate(-47.699455, -36.043906) "></path>
        <rect id="Rectangle" x="0" y="0" width="96" height="72"></rect>
    </g>
</svg>