<?xml version="1.0" encoding="UTF-8"?>
<svg width="72px" height="88px" viewBox="0 0 72 88" version="1.1" xmlns="http://www.w3.org/2000/svg" xmlns:xlink="http://www.w3.org/1999/xlink">
    <!-- Generator: Sketch 61.2 (89653) - https://sketch.com -->
    <title>Rectangle</title>
    <desc>Created with Sketch.</desc>
    <g id="Page-1" stroke="none" stroke-width="1" fill="none" fill-rule="evenodd">
        <path d="M24.1797818,64.3324622 C24.1797818,64.308385 23.9149329,61.1783515 23.5916107,57.3810361 L23,50.4743246 L23.0997483,50.3711368 L23.196057,50.2713884 L24.4033557,50.2713884 L25.6072148,50.2713884 L25.6519295,50.5052811 C25.9993289,52.3523448 26.5875,54.1134186 27.1550336,54.9836367 C27.7260068,55.8641736 28.5927852,56.2906838 30.2953859,56.5245763 C30.6462249,56.5692911 31.4407719,56.5796099 36.572651,56.5899287 L42.4474833,56.6036871 L42.3202182,56.4041905 C38.8083893,50.9283515 35.7746645,45.6864052 33.7590604,41.6208011 C31.9739094,38.0161032 30.8388423,35.1405998 30.2403523,32.6950462 C29.8860739,31.2641737 29.7519296,30.2598113 29.7519296,29.0972274 C29.7519296,27.810818 29.9376678,26.8890059 30.3744966,26.0119085 C31.234396,24.2783515 32.8854027,23.3737374 35.1830537,23.3737374 C38.4369127,23.3737374 40.3114933,25.0557005 40.7723994,28.3852307 C40.9237416,29.475583 40.9168624,30.4042743 40.741443,33.2281837 C40.6967282,33.9676972 40.6382551,34.8860696 40.6141778,35.2747441 C40.5557047,36.2171938 40.5557047,39.7668582 40.6141778,40.554526 C40.7311241,42.1470595 40.8687081,43.330281 41.0854027,44.6132508 C42.1104026,50.7082173 44.5834732,56.2081333 48.5114933,61.1061199 L48.6353188,61.2609018 L48.6353188,62.7261703 L48.6353188,64.1879991 L48.5390101,64.2808683 L48.4427014,64.3737374 L36.3112417,64.3737374 C26.6287751,64.3737374 24.1797818,64.3634186 24.1797818,64.3324622 Z" id="Path" fill="#6E6E6E" fill-rule="nonzero" transform="translate(35.817659, 43.873737) scale(1, -1) translate(-35.817659, -43.873737) "></path>
        <rect id="Rectangle" x="0" y="0" width="72" height="88"></rect>
    </g>
</svg>