<?xml version="1.0" encoding="UTF-8"?>
<svg width="96px" height="72px" viewBox="0 0 96 72" version="1.1" xmlns="http://www.w3.org/2000/svg" xmlns:xlink="http://www.w3.org/1999/xlink">
    <!-- Generator: Sketch 61.2 (89653) - https://sketch.com -->
    <title>Rectangle</title>
    <desc>Created with Sketch.</desc>
    <g id="Page-1" stroke="none" stroke-width="1" fill="none" fill-rule="evenodd">
        <path d="M58.2048112,57.7861438 C57.2032233,57.374143 56.7379467,57.1965565 56.180325,57.0154182 C54.8413227,56.5750037 53.5058721,56.3015205 52.007042,56.1558995 C50.5295222,56.0102786 47.4039995,56.0600028 45.3120305,56.2660032 C43.3621307,56.4542449 41.3589548,56.9159698 39.4374687,57.6192124 C39.1000544,57.7399713 38.8088124,57.8429714 38.7910538,57.8429714 C38.7732951,57.8429714 38.7058123,57.8074541 38.6383295,57.7648334 L38.5211223,57.6866952 L38.4962602,56.7987627 C38.4678464,55.7581058 38.4145704,54.1917927 38.3861566,53.634171 C38.1517423,48.8997147 37.7575003,44.8969148 37.0862233,40.5105279 C36.9654645,39.7078369 36.5889811,37.495109 36.4895326,36.9765564 C36.4362567,36.7066248 36.4291532,36.6107281 36.4611188,36.5823143 C36.510843,36.5361418 39.0361232,35.0053461 39.0609854,35.0053461 C39.0751922,35.0053461 39.3238133,35.1793809 39.6221587,35.388933 C41.724783,36.887763 43.0424749,37.5767987 44.3210978,37.8502819 C44.8218917,37.9568339 45.7098243,37.981696 46.2461355,37.903558 C47.7343105,37.6833507 48.8886228,36.9055217 49.7268312,35.5523125 C50.5827981,34.1706894 51.0693852,32.2918242 51.2221096,29.7843027 C51.2611787,29.1414395 51.2434199,26.9855391 51.190144,26.3213656 C50.9770402,23.5261539 50.4229703,21.5407367 49.4497963,20.0809757 C48.4268979,18.5395247 46.9884472,17.7794545 45.0989267,17.772351 C44.2323045,17.772351 43.5787862,17.9073167 42.9430264,18.2269725 C42.4280255,18.4826971 42.0835077,18.7774907 41.9556454,19.0687325 C41.8917143,19.2143535 41.8881625,19.2498707 41.9272316,19.2960432 C41.9520936,19.3280089 42.3818531,19.693837 42.8790952,20.1058378 C43.9801316,21.0221842 44.1470629,21.2068741 44.4596152,21.8745995 C44.7899262,22.577842 44.9248918,23.2952915 44.8929263,24.2080862 C44.8467538,25.5222264 44.4312014,26.4705383 43.500648,27.3620226 C42.7974055,28.0404031 42.0479904,28.4310935 41.0321955,28.6548524 C40.7018847,28.725887 40.5633671,28.7329905 39.842366,28.7329905 C39.0396749,28.7329905 39.0183645,28.7294387 38.5992603,28.6193352 C38.0949146,28.4843694 37.444948,28.1789206 37.0720164,27.8947821 C36.1982907,27.2341604 35.5305655,26.2254689 35.2251167,25.1102256 C35.0617371,24.5241902 35.022668,24.2187414 35.0049094,23.4409125 C34.9764955,22.3718416 35.0688405,21.6899095 35.3494272,20.8339424 C36.2835323,17.9747997 39.1781924,15.875727 43.0921991,15.2080018 C44.8005813,14.9167599 46.9316195,14.8670357 48.7714157,15.0801395 C52.2379045,15.4779333 54.9620815,16.6784181 57.0647058,18.7348699 C58.0947076,19.747113 58.7766398,20.6634594 59.3946408,21.8817029 C60.1262973,23.3130501 60.5738153,24.8829149 60.801126,26.8008493 C60.8757123,27.4508158 60.9076779,29.4788538 60.854402,30.2105103 C60.6519533,32.8636527 59.8847797,35.1190014 58.5422256,36.994315 C56.1767732,40.3009758 52.5255946,42.0022546 48.0468627,41.8850475 C46.5622395,41.8459784 45.343996,41.6257712 43.9126488,41.1320807 C42.6695431,40.7023213 41.5542999,40.141148 40.4497119,39.3846294 L40.0661249,39.1218014 L40.0838836,39.2745258 C40.0980905,39.3597673 40.3076426,41.6080125 40.5562637,44.275362 C40.8013331,46.9427113 41.0073335,49.1270254 41.0108852,49.1305771 C41.0144369,49.1341289 41.1458509,49.0879564 41.302127,49.027577 C42.4422326,48.5836107 43.4970964,48.4806106 46.5906534,48.5125762 C49.2047268,48.54099 50.4904531,48.6439901 51.9892833,48.949439 C54.5323222,49.4644398 56.4467047,50.5867866 58.0236729,52.4798587 C58.1621905,52.6467901 58.3966046,52.9131698 58.5493291,53.0729977 C59.3626752,53.9467234 59.8528141,55.1649668 59.9487108,56.5536933 L59.9735729,56.9124181 L59.838607,57.1574875 C59.6610206,57.4735914 59.3875373,57.7612817 59.1637783,57.8642818 C58.8831916,57.9956958 58.6736396,57.9779372 58.2048112,57.7861438 Z" id="Path" fill="#6E6E6E" fill-rule="nonzero" transform="translate(47.940429, 36.449093) scale(1, -1) translate(-47.940429, -36.449093) "></path>
        <rect id="Rectangle" transform="translate(48.000000, 36.000000) scale(1, -1) translate(-48.000000, -36.000000) " x="0" y="0" width="96" height="72"></rect>
    </g>
</svg>