<?xml version="1.0" encoding="UTF-8"?>
<svg width="97px" height="73px" viewBox="0 0 97 73" version="1.1" xmlns="http://www.w3.org/2000/svg" xmlns:xlink="http://www.w3.org/1999/xlink">
    <!-- Generator: Sketch 61.2 (89653) - https://sketch.com -->
    <title>Rectangle</title>
    <desc>Created with Sketch.</desc>
    <g id="Page-1" stroke="none" stroke-width="1" fill="none" fill-rule="evenodd">
        <path d="M47.3304129,57.9907284 C46.5324778,57.9365699 46.023388,57.8932431 45.6514997,57.8463058 C43.0193972,57.5177443 40.8819421,56.7089775 39.2246924,55.4091738 C38.795035,55.0733912 38.0801431,54.3548886 37.7949083,53.968558 C37.1811122,53.1417384 36.8020028,52.2643709 36.599811,51.1884222 C36.5312103,50.841808 36.5203786,50.6396162 36.516768,49.9608298 C36.516768,49.26038 36.5275997,49.094294 36.5962005,48.7512903 C36.7406231,48.0472299 36.9680888,47.4695394 37.3038713,46.9496179 C38.0873642,45.75091 39.2824615,45.0179651 40.7700147,44.8338263 C41.2213354,44.7760572 42.2250727,44.8085523 42.6005715,44.8879848 C43.5068236,45.0865659 44.2181051,45.4728964 44.8860598,46.1264089 C45.6045624,46.8304693 46.0089458,47.6861734 46.1100416,48.704353 C46.2689065,50.3435498 45.5323511,51.8780403 43.9003753,53.3006033 C43.4562756,53.6869339 43.3587904,53.8096931 43.387675,53.9505052 C43.4346123,54.2104659 44.0014711,54.5967965 44.6224885,54.7989882 C45.391539,55.0481172 46.5360884,55.0770018 47.4748355,54.8711994 C47.9225457,54.7773247 48.2005593,54.6762289 48.6482694,54.4559844 C50.0961063,53.7410924 51.2045501,52.1921595 51.7353033,50.1449687 C52.2191191,48.2855272 52.2913304,45.6750881 51.912221,43.7687094 C51.6089335,42.2414399 51.0131901,41.0066264 50.1683177,40.1545328 C49.5978483,39.5768423 49.0490423,39.2591125 48.3088763,39.0677526 C47.8395027,38.9486039 47.3592975,38.9269404 46.4530453,38.9883201 C46.0306091,39.0172047 45.4095918,39.038868 45.0738092,39.038868 L44.460013,39.038868 L44.2181051,38.9197193 C43.9400915,38.7825178 43.6006983,38.4611775 43.4562756,38.1976062 C43.0085655,37.3743971 43.3262953,36.3923232 44.1711677,35.9879398 C44.6297095,35.7676953 45.1965685,35.7243685 46.3014016,35.8254643 C47.0451781,35.8940651 47.3954031,35.8940651 47.8647766,35.8218538 C48.8324083,35.6774312 49.583406,35.2983217 50.2766347,34.6014825 C51.2189923,33.6482931 51.8580625,32.1896245 52.186624,30.2326978 C52.3166044,29.4492049 52.377984,28.8065242 52.428532,27.7305756 C52.5151855,25.8205862 52.3346573,24.1127886 51.912221,22.7877109 C51.1251176,20.3289155 49.5870166,18.8052567 47.445951,18.3719888 C46.6444054,18.2059027 45.6226152,18.1842394 44.8752281,18.3142197 C43.7595632,18.5091903 42.6438984,19.1446499 42.4850335,19.6790137 L42.4417066,19.8198257 L42.622235,19.9895223 C42.7233308,20.0797864 43.0013444,20.3216944 43.2432522,20.5274966 C44.3228115,21.4409698 44.9907662,22.4844233 45.2398952,23.6398045 C45.3446016,24.1344519 45.3554333,25.0443145 45.2615587,25.5281303 C44.9727133,26.986799 44.0231345,28.1205167 42.6005715,28.7054284 C41.9073429,28.9906631 41.2357777,29.1062012 40.2717566,29.1062012 C39.4954848,29.1062012 39.1705339,29.0628744 38.5675695,28.8895673 C37.3219242,28.5321212 36.1412692,27.535605 35.5383046,26.3368971 C35.0508782,25.3692654 34.8847922,24.0875146 35.0797628,22.7913215 C35.3866609,20.7224672 36.599811,18.9532899 38.7083815,17.4910107 C40.925269,15.9529096 43.7126259,15.1224795 46.9874091,15.0141625 C52.2263403,14.8444659 56.4254284,16.2020387 59.1911219,18.9641216 C60.7183913,20.4877804 61.5813165,22.2027992 61.9207097,24.3980233 C61.992921,24.849344 62.0037527,25.0659779 62.0037527,25.9866723 C62.0073633,27.1131688 61.9820893,27.4272881 61.8232244,28.3335401 C61.0288999,32.7817573 57.77578,35.67021 51.9338844,37.1108258 C51.5367221,37.2083111 51.1828867,37.2877436 51.1503916,37.2877436 C50.9987479,37.2877436 51.1070649,37.3491232 51.4031312,37.4285556 C51.5764384,37.4754929 52.0891387,37.6343578 52.5440701,37.7823911 C56.7828745,39.1616273 59.3355445,41.1185539 60.4909256,43.8770263 C60.9422464,44.952975 61.1191641,45.8772798 61.1480486,47.2817899 C61.1733226,48.6140887 61.0938901,49.3903605 60.8122659,50.4626985 C60.6425693,51.1198215 60.4837044,51.5350366 60.1479219,52.2174335 C59.5630102,53.4016992 58.7614646,54.3982153 57.7071793,55.2466983 C55.8080217,56.7739677 53.4467115,57.636893 50.3813411,57.9257382 C49.8397562,57.9762861 47.7672914,58.019613 47.3304129,57.9907284 Z" id="Path" fill="#6E6E6E" fill-rule="nonzero" transform="translate(48.502035, 36.500000) scale(1, -1) translate(-48.502035, -36.500000) "></path>
        <rect id="Rectangle" x="0.1201773" y="0.89003138" width="96" height="72"></rect>
    </g>
</svg>