<?xml version="1.0" encoding="UTF-8"?>
<svg width="72px" height="88px" viewBox="0 0 72 88" version="1.1" xmlns="http://www.w3.org/2000/svg" xmlns:xlink="http://www.w3.org/1999/xlink">
    <!-- Generator: Sketch 61.2 (89653) - https://sketch.com -->
    <title>Rectangle</title>
    <desc>Created with Sketch.</desc>
    <g id="Page-1" stroke="none" stroke-width="1" fill="none" fill-rule="evenodd">
        <path d="M38.2937605,64.4310793 C37.7095279,63.4596628 25.3023609,42.7453289 23.4770657,39.7031703 L23,38.9046037 L23,36.7785497 L23,34.6559528 L23.0967959,34.5626138 L23.1935919,34.4692749 L29.5475548,34.4692749 L35.9049747,34.4692749 L35.8842327,32.6301518 C35.8669477,30.7080607 35.8358348,30.2309949 35.6906408,29.5707083 C35.4901349,28.6442327 35.1755481,28.1429679 34.6224284,27.8525801 C33.9102867,27.4826813 32.4860033,27.1853794 30.9510962,27.0885835 C30.7713322,27.0782125 30.5708263,27.0609275 30.5120573,27.0505565 L30.3979764,27.0332715 L30.3979764,25.5951602 L30.3979764,24.1535919 L30.4913153,24.0567959 L30.5846543,23.96 L40.0775716,23.96 L49.570489,23.96 L49.663828,24.0567959 L49.757167,24.1535919 L49.757167,25.5951602 L49.757167,27.0332715 L49.646543,27.0505565 C49.584317,27.0609275 49.3838111,27.0782125 49.2040472,27.0885835 C48.3639967,27.1369815 47.3787521,27.3098313 46.7876054,27.5068803 C46.0512647,27.7523271 45.7021079,28.018516 45.4532041,28.5370657 C45.0660202,29.3390894 44.9519393,30.3243339 44.9519393,32.9412816 L44.9519393,34.4692749 L47.2577572,34.4692749 L49.5635751,34.4692749 L49.660371,34.5626138 L49.757167,34.6559528 L49.757167,36.4743339 L49.757167,38.296172 L49.677656,38.3687689 L49.598145,38.4448229 L47.2819561,38.451737 L44.9692243,38.4621079 L44.9588533,51.6125295 L44.9519393,64.7664081 L44.8586004,64.8632041 L44.7652614,64.96 L41.6885329,64.96 L38.6083474,64.96 L38.2937605,64.4310793 Z M37.1494941,57.1748398 C37.1149242,56.9501349 36.5479764,49.2721417 36.3440134,46.2057841 C36.1780776,43.6821753 35.8946037,38.9080607 35.8946037,38.5589038 L35.8946037,38.4448229 L30.8301012,38.4448229 C28.0437605,38.4448229 25.7655986,38.455194 25.7655986,38.465565 C25.7655986,38.5035919 37.1218381,57.2508937 37.1425801,57.2508937 C37.1529511,57.2508937 37.1598651,57.2163238 37.1494941,57.1748398 Z" id="Shape" fill="#6E6E6E" fill-rule="nonzero" transform="translate(36.378583, 44.460000) scale(1, -1) translate(-36.378583, -44.460000) "></path>
        <rect id="Rectangle" x="0" y="0" width="72" height="88"></rect>
    </g>
</svg>