<?xml version="1.0" encoding="UTF-8"?>
<svg width="72px" height="88px" viewBox="0 0 72 88" version="1.1" xmlns="http://www.w3.org/2000/svg" xmlns:xlink="http://www.w3.org/1999/xlink">
    <!-- Generator: Sketch 61.2 (89653) - https://sketch.com -->
    <title>Rectangle</title>
    <desc>Created with Sketch.</desc>
    <g id="Page-1" stroke="none" stroke-width="1" fill="none" fill-rule="evenodd">
        <path d="M34.7569053,64.5178842 C33.9960835,64.4662448 33.5106723,64.4249332 33.1560811,64.380179 C30.646402,64.0668994 28.6083634,63.2957497 27.0281951,62.0564019 C26.6185218,61.7362372 25.9368806,61.0511532 25.6649126,60.6827915 C25.0796651,59.8944287 24.7181887,59.0578689 24.5254012,58.0319644 C24.4599912,57.7014717 24.4496633,57.5086842 24.4462207,56.8614693 C24.4462207,56.1935986 24.4565486,56.0352375 24.5219586,55.7081875 C24.6596639,55.0368741 24.8765498,54.4860529 25.1967145,53.9903137 C25.9437659,52.8473598 27.0832772,52.1485053 28.5016419,51.9729311 C28.9319709,51.9178489 29.8890228,51.9488326 30.2470566,52.0245706 C31.1111573,52.2139153 31.789356,52.582277 32.4262431,53.2053936 C33.1113269,53.8767069 33.4969018,54.6926108 33.5932955,55.6634332 C33.7447713,57.2263884 33.0424743,58.6895072 31.4864043,60.0459045 C31.0629605,60.4142662 30.9700094,60.5313157 30.9975505,60.6655784 C31.0423048,60.913448 31.582798,61.2818097 32.1749309,61.4745971 C32.9082116,61.7121387 33.9995262,61.7396798 34.8946106,61.5434497 C35.3214971,61.4539412 35.5865798,61.3575475 36.0134662,61.1475469 C37.3939618,60.4659057 38.4508501,58.9890163 38.9569171,57.0370436 C39.4182299,55.2640878 39.4870825,52.7750644 39.125606,50.9573545 C38.8364249,49.5011208 38.2683905,48.3237405 37.4628145,47.5112792 C36.9188786,46.960458 36.3955984,46.6575063 35.6898588,46.4750468 C35.2423166,46.3614399 34.7844464,46.3407841 33.9203455,46.3993089 C33.5175575,46.42685 32.9254248,46.4475057 32.6052599,46.4475057 L32.0200124,46.4475057 L31.789356,46.3338988 C31.5242733,46.2030788 31.2006659,45.8966845 31.0629605,45.6453723 C30.6360741,44.8604521 30.9390258,43.9240561 31.7446018,43.5384812 C32.1818161,43.3284806 32.7223095,43.287169 33.775755,43.3835627 C34.4849373,43.4489727 34.8188727,43.4489727 35.2664149,43.3801201 C36.1890405,43.2424148 36.9051081,42.8809383 37.5660935,42.2165103 C38.4646206,41.3076553 39.0739666,39.9168317 39.3872461,38.0509248 C39.5111809,37.3038735 39.5697057,36.6910849 39.6179026,35.6651804 C39.7005257,33.8440278 39.5283941,32.2156625 39.125606,30.9522164 C38.3751122,28.6077836 36.9085507,27.1549926 34.8670696,26.7418767 C34.1028051,26.5835156 33.1285401,26.5628598 32.4159152,26.6867946 C31.3521417,26.8726968 30.2883682,27.4786001 30.1368924,27.9881097 L30.0955807,28.1223724 L30.2677124,28.2841761 C30.3641061,28.3702419 30.6291888,28.6008983 30.8598452,28.7971284 C31.8891923,29.6681144 32.5260794,30.6630352 32.763621,31.7646777 C32.8634574,32.2363183 32.8737853,33.1038617 32.7842769,33.5651745 C32.5088662,34.9559981 31.6034539,36.0369847 30.2470566,36.5946912 C29.5860711,36.8666592 28.9457415,36.9768235 28.0265586,36.9768235 C27.2863925,36.9768235 26.9765556,36.9355118 26.401636,36.7702655 C25.2139277,36.4294448 24.0881869,35.4792782 23.5132672,34.3363242 C23.0485118,33.4136986 22.8901507,32.1915641 23.0760529,30.955659 C23.3686766,28.9830305 24.5254012,27.2961405 26.5358986,25.9018744 C28.6496751,24.4353128 31.3073875,23.6435074 34.4298552,23.5402284 C39.4251152,23.3784246 43.4288968,24.6728545 46.0659535,27.3064684 C47.522187,28.7592594 48.3449762,30.3945099 48.6685837,32.4876306 C48.7374363,32.9179596 48.7477642,33.1245175 48.7477642,34.0023889 C48.7512069,35.0764902 48.7271084,35.3759993 48.5756326,36.2401 C47.8182534,40.4814234 44.7164414,43.2355295 39.1462619,44.6091399 C38.7675722,44.702091 38.4301943,44.7778289 38.3992106,44.7778289 C38.2546201,44.7778289 38.3578991,44.8363537 38.6401949,44.9120916 C38.8054413,44.9568458 39.2942951,45.1083216 39.7280668,45.2494696 C43.7697175,46.5645552 46.2036587,48.4304621 47.3053011,51.0606334 C47.7356302,52.086538 47.9043193,52.9678518 47.9318603,54.3070359 C47.9559588,55.5773674 47.8802208,56.3175334 47.6116954,57.3399953 C47.4498917,57.9665544 47.2984159,58.3624572 46.9782511,59.0131147 C46.4205446,60.1422982 45.6562802,61.0924648 44.6510314,61.9014834 C42.8402067,63.3577171 40.588725,64.1805063 37.6659299,64.4559168 C37.149535,64.5041137 35.1734639,64.5454254 34.7569053,64.5178842 Z" id="Path" fill="#6E6E6E" fill-rule="nonzero" transform="translate(35.874033, 44.026725) scale(1, -1) translate(-35.874033, -44.026725) "></path>
        <rect id="Rectangle" x="0" y="0" width="72" height="88"></rect>
    </g>
</svg>