<?xml version="1.0" encoding="UTF-8"?>
<svg width="96px" height="72px" viewBox="0 0 96 72" version="1.1" xmlns="http://www.w3.org/2000/svg" xmlns:xlink="http://www.w3.org/1999/xlink">
    <!-- Generator: Sketch 61.2 (89653) - https://sketch.com -->
    <title>Rectangle</title>
    <desc>Created with Sketch.</desc>
    <g id="Page-1" stroke="none" stroke-width="1" fill="none" fill-rule="evenodd">
        <path d="M50.0397976,57.4052783 C49.4270658,56.3864756 36.4146712,34.6616864 34.5003372,31.4711298 L34,30.6336088 L34,28.4038448 L34,26.1777066 L34.1015177,26.0798145 L34.2030354,25.9819224 L40.8669477,25.9819224 L47.5344857,25.9819224 L47.5127318,24.053086 C47.4946037,22.0372344 47.461973,21.5368971 47.3096965,20.8444013 C47.0994098,19.8727318 46.7694773,19.3470152 46.1893761,19.0424621 C45.4424958,18.6545194 43.9487352,18.342715 42.3389545,18.2411973 C42.1504216,18.2303204 41.9401349,18.2121923 41.8784992,18.2013153 L41.7588533,18.1831872 L41.7588533,16.6749241 L41.7588533,15.1630354 L41.8567453,15.0615177 L41.9546374,14.96 L51.9106239,14.96 L61.8666104,14.96 L61.9645025,15.0615177 L62.0623946,15.1630354 L62.0623946,16.6749241 L62.0623946,18.1831872 L61.9463744,18.2013153 C61.881113,18.2121923 61.6708263,18.2303204 61.4822934,18.2411973 C60.6012648,18.2919562 59.5679596,18.4732377 58.9479764,18.6798988 C58.1757167,18.9373187 57.8095278,19.2164924 57.5484823,19.7603372 C57.1424115,20.601484 57.0227656,21.6347892 57.0227656,24.3793929 L57.0227656,25.9819224 L59.4410624,25.9819224 L61.8593592,25.9819224 L61.9608769,26.0798145 L62.0623946,26.1777066 L62.0623946,28.0847892 L62.0623946,29.9954975 L61.9790051,30.0716357 L61.8956155,30.1513997 L59.4664418,30.158651 L57.0408938,30.1695278 L57.0300168,43.9614334 L57.0227656,57.7569646 L56.9248736,57.8584823 L56.8269815,57.96 L53.6001687,57.96 L50.3697302,57.96 L50.0397976,57.4052783 Z M48.8397133,49.7950759 C48.803457,49.5594098 48.2088533,41.5068803 47.9949409,38.2909443 C47.8209106,35.6442327 47.5236088,30.6372344 47.5236088,30.2710455 L47.5236088,30.1513997 L42.2120574,30.1513997 C39.2897976,30.1513997 36.9005059,30.1622766 36.9005059,30.1731535 C36.9005059,30.2130354 48.8107083,49.8748398 48.8324621,49.8748398 C48.8433389,49.8748398 48.8505902,49.8385835 48.8397133,49.7950759 Z" id="Shape" fill="#6E6E6E" fill-rule="nonzero" transform="translate(48.031197, 36.460000) scale(1, -1) translate(-48.031197, -36.460000) "></path>
        <rect id="Rectangle" x="0" y="0" width="96" height="72"></rect>
    </g>
</svg>