<?xml version="1.0" encoding="UTF-8"?>
<svg width="96px" height="72px" viewBox="0 0 96 72" version="1.1" xmlns="http://www.w3.org/2000/svg" xmlns:xlink="http://www.w3.org/1999/xlink">
    <!-- Generator: Sketch 61.2 (89653) - https://sketch.com -->
    <title>Rectangle</title>
    <desc>Created with Sketch.</desc>
    <g id="Page-1" stroke="none" stroke-width="1" fill="none" fill-rule="evenodd">
        <path d="M49.1812393,57.7371817 C46.9764855,55.7842955 43.7569609,54.5760612 39.471562,54.0942275 C38.2633276,53.9591681 36.3542444,53.8387096 35.4416808,53.8387096 L35.0730051,53.8387096 L35.0657045,52.323854 L35.0547538,50.8053481 L35.1642615,50.6994906 L35.2737691,50.5936333 L37.9567062,50.5790323 C40.2198641,50.5680815 40.705348,50.5534805 41.0594228,50.5023769 C41.6033107,50.4220713 41.9865874,50.3198642 42.2129032,50.188455 C42.5122241,50.0205433 42.6618846,49.6701188 42.8005942,48.8305603 C42.8589983,48.4837861 42.8662988,47.4763157 42.8772496,35.4596775 C42.8845501,25.994567 42.8772496,22.3516129 42.8480475,22.0449915 C42.6874364,20.4169779 42.2019524,19.4387096 41.3295416,18.9860781 C40.3111206,18.4604414 38.9094228,18.2487266 36.4016978,18.2487266 L35.1971138,18.2487266 L35.0985569,18.1465195 L35,18.0443124 L35,16.6243633 L35,15.2044143 L35.0985569,15.1022071 L35.1971138,15 L47.556876,15 L59.9166384,15 L60.0151952,15.1022071 L60.1137521,15.2044143 L60.1137521,16.6280136 L60.1137521,18.0516129 L60.0151952,18.1465195 L59.9129881,18.2414262 L58.4893888,18.2596775 C56.9745331,18.2779287 56.4561969,18.3217317 55.6458404,18.4859932 C54.8719864,18.6429541 54.3061969,18.8619694 53.8937181,19.1685908 C53.3242785,19.5883701 52.944652,20.4352292 52.7548387,21.6982173 C52.6927844,22.1143463 52.6891341,22.9758065 52.6781834,39.9677419 L52.6672326,57.7955857 L52.5686758,57.8977929 L52.4701188,58 L50.9735145,57.9963497 L49.4732598,57.9963497 L49.1812393,57.7371817 Z" id="Path" fill="#6E6E6E" fill-rule="nonzero" transform="translate(47.556876, 36.500000) scale(-1, 1) rotate(180.000000) translate(-47.556876, -36.500000) "></path>
        <rect id="Rectangle" x="0" y="0" width="96" height="72"></rect>
    </g>
</svg>