<?xml version="1.0" encoding="UTF-8"?>
<svg width="96px" height="72px" viewBox="0 0 96 72" version="1.1" xmlns="http://www.w3.org/2000/svg" xmlns:xlink="http://www.w3.org/1999/xlink">
    <!-- Generator: Sketch 61.2 (89653) - https://sketch.com -->
    <title>Rectangle</title>
    <desc>Created with Sketch.</desc>
    <g id="Page-1" stroke="none" stroke-width="1" fill="none" fill-rule="evenodd">
        <path d="M49.3456574,57.0933089 C48.6869509,57.0512638 47.818019,56.9356398 47.1242751,56.7954895 C43.4032844,56.049189 40.3480078,53.967957 38.0250164,50.5973421 C35.1939803,46.4839307 33.8310186,40.6992269 34.0167177,33.56908 C34.170883,27.6512334 35.3971982,23.0788297 37.7517233,19.6521547 C40.155301,16.148397 43.410292,14.312428 47.5026808,14.1442477 C52.7828436,13.9305185 56.8787363,15.8996302 59.3523893,19.8448613 C60.4280428,21.5546951 61.0797417,23.6569496 61.3144935,26.1761514 C61.3740574,26.817339 61.3740574,28.8985711 61.3144935,29.5047211 C60.9641177,33.0470201 59.7938627,35.7098759 57.649563,37.8436643 C55.9187067,39.5675131 53.904046,40.5100239 51.3918519,40.7728058 C50.8067243,40.8323696 49.5138378,40.8253621 48.9252064,40.7517832 C47.1803352,40.5450615 45.8348922,40.0230016 44.3668178,38.9858893 L44.016442,38.7371226 L44.0059307,39.8863551 C43.9638857,44.1469243 44.5420056,47.895945 45.6106517,50.3170416 C46.5531626,52.45083 47.8355379,53.6561226 49.5698979,54.0345284 C50.0008601,54.1291299 51.346303,54.1291299 51.7772652,54.0345284 C52.7513098,53.8207992 53.3364373,53.403852 53.4380463,52.8502583 C53.4941064,52.5349201 53.196287,52.2195819 52.1626786,51.5083191 C51.7702576,51.2385298 51.3498068,50.9231916 51.2341828,50.8075676 C50.4248148,50.0157184 50.0709352,48.6597642 50.3232058,47.3353438 C50.5544538,46.1195399 51.3568142,45.0859313 52.5200618,44.4973001 C53.501114,44.0032703 54.7484517,43.8491049 56.0518496,44.0663379 C57.1800595,44.2555408 58.0630064,44.7005181 58.8408406,45.4783523 C59.6186748,46.2596902 60.0531407,47.1146071 60.2598625,48.2848621 C60.3194264,48.6177191 60.3334414,48.8489671 60.3369452,49.4060646 C60.3369452,50.1628762 60.2878925,50.5973421 60.1302234,51.2280186 C59.499547,53.7297015 57.3937887,55.7128283 54.4015797,56.6167978 C53.0175954,57.0372487 51.1816264,57.2089329 49.3456574,57.0933089 Z M48.6589209,37.1954692 C49.8677173,36.8976498 50.5824839,36.0076953 50.9538822,34.3399067 C51.3287842,32.6545993 51.5109797,29.4101197 51.4268895,25.8608132 C51.3568142,22.7845139 51.1606038,20.976575 50.7716868,19.7292373 C50.4072959,18.562486 49.6820181,17.8126819 48.6764397,17.5569076 C47.789989,17.3326671 46.7809068,17.4482911 46.0871628,17.8617345 C45.8033584,18.0299149 45.4004263,18.4153282 45.2007121,18.7131477 C44.4614192,19.8168313 44.1005322,21.7018529 43.9603819,25.2301369 C43.914833,26.3758656 43.9359401,29.5747963 43.9989232,30.5032921 C44.1811187,33.337832 44.4999605,34.8970041 45.0885919,35.8640412 C45.34787,36.2844922 45.8208772,36.7504919 46.1887718,36.9396949 C46.4971024,37.097364 46.8474782,37.212988 47.1698239,37.2655443 C47.5096884,37.3181007 48.3155526,37.2795594 48.6589209,37.1954692 Z" id="Shape" fill="#6E6E6E" fill-rule="nonzero" transform="translate(47.679583, 35.628528) scale(1, -1) translate(-47.679583, -35.628528) "></path>
        <rect id="Rectangle" x="0" y="0" width="96" height="72"></rect>
    </g>
</svg>